<?xml version="1.0" encoding="utf-8"?>
<!-- Generator: Adobe Illustrator 19.2.1, SVG Export Plug-In . SVG Version: 6.00 Build 0)  -->
<svg version="1.1" id="layer" xmlns="http://www.w3.org/2000/svg" xmlns:xlink="http://www.w3.org/1999/xlink" x="0px" y="0px"
	 viewBox="0 0 652 652" style="enable-background:new 0 0 652 652;" xml:space="preserve">
<style type="text/css">
	.st0{fill:#022BB8;}
</style>
<path class="st0" d="M197.4,319.8h-6.4v-14.3h6.4v-2.2c0-17.9,15.5-20.3,23.9-20.3c1.8,0,3.5,0.1,5.3,0.3v15.4c0,0-1.2-0.2-2.8-0.2
	c-3.4,0-8.8,0.6-8.8,5.3v1.7h9.6v14.3h-9.6v39.2h-17.5V319.8z M261.5,324.4c0-4-2.8-7.7-7.2-7.7c-5.3,0-7.8,3.7-8.7,7.7H261.5z
	 M254.8,303.3c16,0,25,11,25,25.8c0,1.8-0.4,5.6-0.4,5.6h-34.2c1.4,6.5,6.8,9.5,12.6,9.5c7.8,0,14.9-5.4,14.9-5.4l6.7,12.5
	c0,0-8.7,7.8-23.1,7.8c-19.4,0-29.8-13.8-29.8-27.9C226.5,315.6,237.3,303.3,254.8,303.3L254.8,303.3L254.8,303.3z M289.9,304.3
	h16.8v9.3c0,1.8-0.2,3.4-0.2,3.4h0.2c2.2-7.4,8.8-13.6,16.6-13.6c0.7,0,1.4,0.1,2,0.2v18.1c0,0-1.4-0.3-3.6-0.3
	c-4.2,0-11,1.4-13.5,9.6c-0.6,2-0.9,4.5-0.9,7.4v20.8h-17.5L289.9,304.3L289.9,304.3z M333,304.3h16.8v9.3c0,1.8-0.2,3.4-0.2,3.4
	h0.2c2.2-7.4,8.8-13.6,16.6-13.6c0.7,0,1.4,0.1,2,0.2v18.1c0,0-1.4-0.3-3.5-0.3c-4.2,0-11,1.4-13.5,9.6c-0.6,2-0.9,4.5-0.9,7.4v20.8
	H333L333,304.3L333,304.3z M394.6,345.4c4.8,0,9-5.1,9-9.4v-1.1h-1.7c-5.8,0-12.5,1.7-12.5,6.1C389.5,343.5,391,345.4,394.6,345.4
	 M402.7,324.6h0.7v-0.9c0-4.4-3.5-5.9-8-5.9c-6.9,0-14.7,5.1-14.7,5.1l-6.4-12.6c0,0,9.4-6.9,22.9-6.9c15.3,0,24.5,8.2,24.5,21.7
	v32.8H405v-3.2c0-1.8,0.2-3.3,0.2-3.3H405c0,0-4,7.8-15.5,7.8c-10.2,0-18.5-6.6-18.5-17.2C371,326.4,394.2,324.6,402.7,324.6
	 M433.9,320h-7.1v-14h7.6v-15.4h18V306h11.6v14h-11.6v16.4c0,6,6.3,6.9,9.9,6.9l2.5-0.1v15.6c0,0-2,0.3-5,0.3
	c-8.8,0-25.9-2.3-25.9-20.3V320L433.9,320z M472.4,303.3h18.1v32c0,5.1,2,7.2,5.7,7.2c7.7,0,11.4-6.9,11.4-15v-24.1h18.1v54.5h-17.3
	V353c0-1.8,0.2-3.4,0.2-3.4h-0.2c-2.9,5.8-9.6,9.4-16.8,9.4c-10.6,0-19.1-5.1-19.1-20.4L472.4,303.3L472.4,303.3z M538.8,305H556
	v4.6c0,1.8-0.2,3.3-0.2,3.3h0.2c2.5-3.7,7.4-9.2,15.8-9.2c6.7,0,12.1,3,14.9,9h0.2c2.8-4.4,9.1-9,17.1-9c9.7,0,17.3,5.3,17.3,19.9
	v34.5h-17.9v-31.5c0-3.9-0.7-6.7-4.1-6.7c-5.7,0-8.7,4.1-9.8,10c-0.4,1.9-0.4,4-0.4,6.2v22h-17.9v-31.5c0-3.9-0.7-6.7-4.1-6.7
	c-5.6,0-8.5,3.9-9.7,9.6c-0.4,2-0.5,4.3-0.5,6.6v22h-17.9L538.8,305L538.8,305z M157.2,321c0,37.6-30.5,68-68,68
	c-1.4,0-2.7,0-4.1-0.1c-0.4,0-0.7-0.1-1.1-0.1c-1-0.1-2.1-0.2-3.1-0.3l-1.1-0.1c-1.2-0.2-2.4-0.4-3.5-0.6l-0.5-0.1
	c-1.3-0.3-2.7-0.6-4-0.9c-0.3-0.1-0.6-0.2-0.9-0.3c-1-0.3-1.9-0.6-2.9-0.9l-1.4-0.5c-0.8-0.3-1.5-0.6-2.3-0.9l-1.6-0.6
	c-1-0.4-2.1-0.9-3.1-1.4c-0.8-0.4-1.5-0.8-2.2-1.1l-1-0.6c-0.3-0.2-0.8-0.4-1.2-0.6c0,0-7.7-5.1-11.2-8.1l1.1-0.1
	c3.8-0.5,9.6-1.2,14.9-4c0.9,0.5,1.8,1.1,2.6,1.6l0.6,0.3c1.9,1,3.8,1.9,5.8,2.7l1.7,0.6l1.3,0.4c0.7,0.2,1.5,0.5,2.2,0.7l0.9,0.2
	c1.1,0.3,2.1,0.5,3.2,0.7l0.4,0.1c0.9,0.2,1.9,0.3,2.8,0.5l0.9,0.1c0.8,0.1,1.7,0.2,2.5,0.2l0.9,0.1c1.1,0.1,2.2,0.1,3.3,0.1
	c30.4-0.2,54.9-25.1,54.6-55.5c-0.2-30.1-24.6-54.4-54.7-54.6c-30.4,0-55,24.7-55,55.1c0,1.5,0.1,2.9,0.2,4.4c0,0.2,0,0.4,0,0.6
	c0.1,1.4,0.3,2.9,0.6,4.3c0,0.1,0,0.3,0.1,0.4c0.8,4.4,2.1,8.8,4,12.9l0.3,0.7c0.6,1.1,1.1,2.3,1.8,3.4c0.2,0.4,0.4,0.8,0.6,1.1
	c0.2,0.4,0.6,0.9,0.8,1.3c0.6,0.9,1.2,1.9,1.8,2.8h0.4c1.5,0,2.9-0.3,4.3-0.8c1.8-0.7,3.4-1.9,3.7-4l0.5-2l5-25.8h-6.1l2.6-13h6.1
	l2-9.3c3-16.3,17.7-18.4,25.2-18.4c2,0,4.1,0.1,6.1,0.3L91.3,294c-0.8-0.1-1.7-0.2-2.5-0.2c-3.3,0-8.6,0.6-9.3,4.8l-1.9,8.7h16.2
	c-0.2,0.1-0.4,0.2-0.6,0.3c-0.2,0.1-0.3,0.1-0.4,0.2c-0.1,0.1-0.2,0.1-0.3,0.2c-0.6,0.3-1.2,0.7-1.8,1.1l-0.3,0.2l-0.1,0.1
	c-0.9,0.6-1.7,1.3-2.5,2l-0.3,0.3c-0.7,0.7-1.4,1.3-2,2.1l-0.4,0.4c-0.6,0.8-1.2,1.6-1.8,2.4c-0.2,0.2-0.3,0.5-0.4,0.7
	c-0.4,0.7-0.8,1.4-1.2,2.1c-0.1,0.2-0.3,0.5-0.4,0.7c0,0.1-0.1,0.1-0.1,0.2h-6.2l-3.9,20.9l-2,9.3c-0.3,1.9-0.9,3.7-1.6,5.4
	c-2.8,6.4-8,9.4-13.1,11c-1.3,0.4-2.5,0.7-3.8,1l-1.8,0.3c-1.8,0.3-3.4,0.5-4.8,0.7c-0.1,0-0.9,0.1-1.5,0.1l-1.2,0.1l-1-1
	c-1.2-1.3-2.3-2.6-3.5-3.9c-2.9-3.4-5.3-7.1-7.4-11l-0.1-0.1c-0.4-0.7-0.7-1.4-1.1-2.1l-0.5-1l-0.7-1.6l-0.6-1.4
	c-0.1-0.3-0.3-0.7-0.4-1c-1.3-3.3-2.3-6.6-3.1-10.1l-0.1-0.5l-0.4-2.2l-0.2-0.9l-0.3-2l-0.2-1.3l-0.2-1.7c-0.1-0.5-0.1-1.1-0.1-1.8
	l-0.1-1.3c-0.1-1.1-0.1-2.1-0.1-3.2c0-37.5,30.5-68,68-68S157.2,283.4,157.2,321L157.2,321L157.2,321z M99.2,322.2
	c0.3-0.4,0.5-0.7,0.8-1.1c1.6-1.8,3.9-2.8,6.3-2.8c0.7,0,1.4,0.1,2,0.4c0.6,0.2,1.1,0.6,1.5,1c0.4,0.4,0.7,1,0.9,1.5
	c0.2,0.6,0.3,1.3,0.3,1.9c0,0.3,0,0.6,0,1c0,0.3,0,0.6,0,0.6H98C98.3,323.9,98.7,323,99.2,322.2L99.2,322.2L99.2,322.2z M81.4,338
	c0.1,0.6,0.3,1.2,0.4,1.8c0.2,0.6,0.4,1.2,0.6,1.8c1.5,3.8,4.3,6.9,7.9,8.8c0.5,0.3,1.1,0.6,1.7,0.8c0.6,0.3,1.2,0.5,1.8,0.7
	c0.7,0.3,1.5,0.5,2.2,0.7c0.8,0.2,1.6,0.4,2.4,0.5c1.8,0.3,3.5,0.4,5.3,0.4c4.4-0.1,8.7-1,12.7-2.9c0.7-0.3,1.5-0.7,2.2-1.1
	c0.4-0.2,0.9-0.5,1.3-0.7c0.5-0.3,1-0.6,1.5-1l0.2-0.1l-3.8-11.1c-1.1,0.7-2.1,1.3-3.3,1.8c-2.6,1.2-6.3,2.6-9.9,2.6
	c-0.5,0-1,0-1.5-0.1c-0.9-0.1-1.8-0.3-2.6-0.6c-0.4-0.1-0.7-0.3-1.1-0.5c-0.2-0.1-0.4-0.3-0.6-0.5c-0.6-0.4-1.2-1-1.6-1.6
	c-0.9-1.4-1.3-3-1.3-4.7h28l0.3-0.8c0.2-0.7,0.4-1.4,0.6-2c0.1-0.4,0.2-0.9,0.3-1.3c0.1-0.5,0.2-1,0.3-1.5c0.1-0.5,0.1-1,0.2-1.5
	c0-0.5,0.1-1,0.1-1.5c0-0.9-0.1-1.9-0.2-2.8c-0.3-2.6-1.1-5-2.5-7.2c-1.9-2.9-4.7-5.1-8-6.1c-1.9-0.7-3.9-1-6-1.2
	c-0.8-0.1-1.5-0.1-2.3-0.1c-1.8,0-3.6,0.2-5.3,0.5c-1.3,0.3-2.5,0.6-3.7,1c-1.2,0.4-2.3,1-3.4,1.6c-0.4,0.2-0.7,0.4-1.1,0.7
	c-0.4,0.2-0.7,0.4-1.1,0.7c-1.7,1.2-3.2,2.6-4.6,4.2c-1.4,1.6-2.6,3.4-3.5,5.3c-2,4.1-3,8.6-3,13.1C81.1,335.4,81.2,336.7,81.4,338
	L81.4,338L81.4,338z"/>
</svg>
